HIERARCHY
ROOT hip
{
OFFSET 2.36 83.58 -1.64
CHANNELS 6 Xposition Yposition Zposition Zrotation Xrotation Yrotation
JOINT abdomen
{
OFFSET 0 7.23 0
CHANNELS 6 Xposition Yposition Zposition Zrotation Xrotation Yrotation
JOINT chest
{
OFFSET 0 16.54 0
CHANNELS 6 Xposition Yposition Zposition Zrotation Xrotation Yrotation
JOINT neck
{
OFFSET 0 34.21 0
CHANNELS 6 Xposition Yposition Zposition Zrotation Xrotation Yrotation
JOINT head
{
OFFSET 0 6.29 0
CHANNELS 6 Xposition Yposition Zposition Zrotation Xrotation Yrotation
End Site
{
OFFSET 0 21.21 0
}
}
}
JOINT lCollar
{
OFFSET 4.06 26.61 -1.12
CHANNELS 6 Xposition Yposition Zposition Zrotation Xrotation Yrotation
JOINT lShldr
{
OFFSET 14.17 0 0
CHANNELS 6 Xposition Yposition Zposition Zrotation Xrotation Yrotation
JOINT lForeArm
{
OFFSET 26.12 0 0
CHANNELS 6 Xposition Yposition Zposition Zrotation Xrotation Yrotation
JOINT lHand
{
OFFSET 27.71 0 0
CHANNELS 6 Xposition Yposition Zposition Zrotation Xrotation Yrotation
JOINT lThumb1
{
OFFSET 2.29 -0.46 1.83
CHANNELS 6 Xposition Yposition Zposition Zrotation Xrotation Yrotation
JOINT lThumb2
{
OFFSET 5.29 0 0
CHANNELS 6 Xposition Yposition Zposition Zrotation Xrotation Yrotation
JOINT lThumb3
{
OFFSET 3.01 0 0
CHANNELS 6 Xposition Yposition Zposition Zrotation Xrotation Yrotation
End Site
{
OFFSET 2.62 0 0
}
}
}
}
JOINT lIndex1
{
OFFSET 9.37 0.29 2.59
CHANNELS 6 Xposition Yposition Zposition Zrotation Xrotation Yrotation
JOINT lIndex2
{
OFFSET 4.34 0 0
CHANNELS 6 Xposition Yposition Zposition Zrotation Xrotation Yrotation
JOINT lIndex3
{
OFFSET 2.16 0 0
CHANNELS 6 Xposition Yposition Zposition Zrotation Xrotation Yrotation
End Site
{
OFFSET 2.20 0 0
}
}
}
}
JOINT lMid1
{
OFFSET 9.47 0.83 0.29
CHANNELS 6 Xposition Yposition Zposition Zrotation Xrotation Yrotation
JOINT lMid2
{
OFFSET 4.77 0 0
CHANNELS 6 Xposition Yposition Zposition Zrotation Xrotation Yrotation
JOINT lMid3
{
OFFSET 2.87 0 0
CHANNELS 6 Xposition Yposition Zposition Zrotation Xrotation Yrotation
End Site
{
OFFSET 2.09 0 0
}
}
}
}
JOINT lRing1
{
OFFSET 8.65 1.01 -1.70
CHANNELS 6 Xposition Yposition Zposition Zrotation Xrotation Yrotation
JOINT lRing2
{
OFFSET 4.54 0 0
CHANNELS 6 Xposition Yposition Zposition Zrotation Xrotation Yrotation
JOINT lRing3
{
OFFSET 2.50 0 0
CHANNELS 6 Xposition Yposition Zposition Zrotation Xrotation Yrotation
End Site
{
OFFSET 2.20 0 0
}
}
}
}
JOINT lPinky1
{
OFFSET 7.69 0.66 -3.90
CHANNELS 6 Xposition Yposition Zposition Zrotation Xrotation Yrotation
JOINT lPinky2
{
OFFSET 3.21 0 0
CHANNELS 6 Xposition Yposition Zposition Zrotation Xrotation Yrotation
JOINT lPinky3
{
OFFSET 1.92 0 0
CHANNELS 6 Xposition Yposition Zposition Zrotation Xrotation Yrotation
End Site
{
OFFSET 1.78 0 0
}
}
}
}
}
}
}
}
JOINT rCollar
{
OFFSET -4.06 26.61 -1.12
CHANNELS 6 Xposition Yposition Zposition Zrotation Xrotation Yrotation
JOINT rShldr
{
OFFSET -14.17 0 0
CHANNELS 6 Xposition Yposition Zposition Zrotation Xrotation Yrotation
JOINT rForeArm
{
OFFSET -26.12 0 0
CHANNELS 6 Xposition Yposition Zposition Zrotation Xrotation Yrotation
JOINT rHand
{
OFFSET -27.71 0 0
CHANNELS 6 Xposition Yposition Zposition Zrotation Xrotation Yrotation
JOINT rThumb1
{
OFFSET -2.29 -0.46 1.83
CHANNELS 6 Xposition Yposition Zposition Zrotation Xrotation Yrotation
JOINT rThumb2
{
OFFSET -5.29 0 0
CHANNELS 6 Xposition Yposition Zposition Zrotation Xrotation Yrotation
JOINT rThumb3
{
OFFSET -3.01 0 0
CHANNELS 6 Xposition Yposition Zposition Zrotation Xrotation Yrotation
End Site
{
OFFSET -2.62 0 0
}
}
}
}
JOINT rIndex1
{
OFFSET -9.37 0.29 2.59
CHANNELS 6 Xposition Yposition Zposition Zrotation Xrotation Yrotation
JOINT rIndex2
{
OFFSET -4.34 0 0
CHANNELS 6 Xposition Yposition Zposition Zrotation Xrotation Yrotation
JOINT rIndex3
{
OFFSET -2.16 0 0
CHANNELS 6 Xposition Yposition Zposition Zrotation Xrotation Yrotation
End Site
{
OFFSET -2.20 0 0
}
}
}
}
JOINT rMid1
{
OFFSET -9.47 0.83 0.29
CHANNELS 6 Xposition Yposition Zposition Zrotation Xrotation Yrotation
JOINT rMid2
{
OFFSET -4.77 0 0
CHANNELS 6 Xposition Yposition Zposition Zrotation Xrotation Yrotation
JOINT rMid3
{
OFFSET -2.87 0 0
CHANNELS 6 Xposition Yposition Zposition Zrotation Xrotation Yrotation
End Site
{
OFFSET -2.09 0 0
}
}
}
}
JOINT rRing1
{
OFFSET -8.65 1.01 -1.70
CHANNELS 6 Xposition Yposition Zposition Zrotation Xrotation Yrotation
JOINT rRing2
{
OFFSET -4.54 0 0
CHANNELS 6 Xposition Yposition Zposition Zrotation Xrotation Yrotation
JOINT rRing3
{
OFFSET -2.50 0 0
CHANNELS 6 Xposition Yposition Zposition Zrotation Xrotation Yrotation
End Site
{
OFFSET -2.20 0 0
}
}
}
}
JOINT rPinky1
{
OFFSET -7.69 0.66 -3.90
CHANNELS 6 Xposition Yposition Zposition Zrotation Xrotation Yrotation
JOINT rPinky2
{
OFFSET -3.21 0 0
CHANNELS 6 Xposition Yposition Zposition Zrotation Xrotation Yrotation
JOINT rPinky3
{
OFFSET -1.92 0 0
CHANNELS 6 Xposition Yposition Zposition Zrotation Xrotation Yrotation
End Site
{
OFFSET -1.78 0 0
}
}
}
}
}
}
}
}
}
}
JOINT lThigh
{
OFFSET 8.73 -0 0
CHANNELS 6 Xposition Yposition Zposition Zrotation Xrotation Yrotation
JOINT lShin
{
OFFSET 0 -46.66 0
CHANNELS 6 Xposition Yposition Zposition Zrotation Xrotation Yrotation
JOINT lFoot
{
OFFSET 0 -40.14 0
CHANNELS 6 Xposition Yposition Zposition Zrotation Xrotation Yrotation
JOINT lToes
{
OFFSET 0 -8.88 14.22
CHANNELS 6 Xposition Yposition Zposition Zrotation Xrotation Yrotation
End Site
{
OFFSET 0 0 6.29
}
}
}
}
}
JOINT rThigh
{
OFFSET -8.73 0 -0
CHANNELS 6 Xposition Yposition Zposition Zrotation Xrotation Yrotation
JOINT rShin
{
OFFSET 0 -46.66 0
CHANNELS 6 Xposition Yposition Zposition Zrotation Xrotation Yrotation
JOINT rFoot
{
OFFSET 0 -40.14 0
CHANNELS 6 Xposition Yposition Zposition Zrotation Xrotation Yrotation
JOINT rToes
{
OFFSET 0 -8.88 14.22
CHANNELS 6 Xposition Yposition Zposition Zrotation Xrotation Yrotation
End Site
{
OFFSET 0 0 6.29
}
}
}
}
}
}
MOTION
Frames: 8
Frame Time: 0.03
-7.30 46.13 81.88 -144.64 4.39 -129.75 0 7.23 0 -0.84 8.97 -1.09 0 16.54 0 -2.71 19.92 -5.01 0 34.21 0 18.16 47.43 -12.49 0 6.29 0 -29.97 -10.72 -10.48 4.06 26.61 -1.12 -6.16 -4.05 2.06 14.17 0 0 -36.43 -3.30 -61.83 26.12 0 0 -0.81 -0.04 -43.19 27.71 0 0 0.01 0 -14.89 2.29 -0.46 1.83 86.36 62.18 -119.66 5.29 0 0 -0 -2.75 -0.02 3.01 0 0 12.48 -0 0 9.37 0.29 2.59 -41.64 -4.05 -9.90 4.34 0 0 -29.00 -1.03 0.75 2.16 0 0 -2.16 0 0 9.47 0.83 0.29 -66.17 -7.66 -6.75 4.77 0 0 -22.89 -0.77 1.90 2.87 0 0 3.95 0.07 0.39 8.65 1.01 -1.70 -66.76 -1.11 1.23 4.54 0 0 -63.44 1.71 -2.90 2.50 0 0 6.76 0 0 7.69 0.66 -3.90 -69.46 -15.74 7.92 3.21 0 0 -48.94 -2.66 3.80 1.92 0 0 4.41 0 0 -4.06 26.61 -1.12 21.20 0.62 14.90 -14.17 0 0 44.27 -17.61 14.60 -26.12 0 0 -6.75 -0.86 104.32 -27.71 0 0 7.12 10.52 -3.34 -2.29 -0.46 1.83 -79.65 60.15 109.13 -5.29 0 0 24.27 -6.37 4.61 -3.01 0 0 -12.48 0 0 -9.37 0.29 2.59 41.79 -3.07 8.66 -4.34 0 0 40.02 -1.70 -0.63 -2.16 0 0 2.16 0 0 -9.47 0.83 0.29 54.69 -7.40 3.57 -4.77 0 0 38.26 -1.79 -2.56 -2.87 0 0 -3.95 0.07 -0.39 -8.65 1.01 -1.70 54.17 -0.80 -2.46 -4.54 0 0 63.62 2.11 2.60 -2.50 0 0 -6.76 0 0 -7.69 0.66 -3.90 51.75 -14.09 -13.56 -3.21 0 0 46.44 -1.88 -3.80 -1.92 0 0 -4.41 0 0 8.73 -0 0 103.26 -52.10 113.03 0 -46.66 0 23.87 55.95 -14.54 0 -40.14 0 -26.85 7.32 -5.13 0 -8.88 14.22 0 0 0 -8.73 0 -0 -21.32 -76.65 -37.58 0 -46.66 0 -8.26 55.46 7.60 0 -40.14 0 5.47 11.99 19.75 0 -8.88 14.22 0 0 -0 
-9.16 33.63 84.63 -140.87 -15.45 -111.92 0 7.23 0 0.16 11.90 -1.89 0 16.54 0 0.65 25.66 -4.49 0 34.21 0 30.15 45.22 -17.58 0 6.29 0 -29.29 -13.42 -1.64 4.06 26.61 -1.12 -9.13 -1.25 1.11 14.17 0 0 -22.43 -2.86 -89.06 26.12 0 0 -2.20 -7.75 -15.02 27.71 0 0 22.58 -6.36 -39.89 2.29 -0.46 1.83 76.06 60.19 -106.87 5.29 0 0 1.26 -3.41 3.91 3.01 0 0 12.48 -0 0 9.37 0.29 2.59 -30.63 -3.51 -7.52 4.34 0 0 -23.90 -0.79 0.76 2.16 0 0 -2.16 0 0 9.47 0.83 0.29 -53.46 -7.36 -4.87 4.77 0 0 -18.66 -0.57 1.67 2.87 0 0 3.95 0.07 0.39 8.65 1.01 -1.70 -57.75 -0.91 1.85 4.54 0 0 -52.28 1.23 -2.65 2.50 0 0 6.76 0 0 7.69 0.66 -3.90 -58.57 -15.60 9.63 3.21 0 0 -42.95 -2.03 3.14 1.92 0 0 4.41 0 0 -4.06 26.61 -1.12 28.13 -0.15 7.44 -14.17 0 0 43.57 -25.73 28.06 -26.12 0 0 -5.41 0.83 90.31 -27.71 0 0 -25.71 4.39 13.93 -2.29 -0.46 1.83 -95.10 61.65 127.60 -5.29 0 0 6.19 -0.33 -3.75 -3.01 0 0 -12.48 0 0 -9.37 0.29 2.59 29.89 -2.71 12.03 -4.34 0 0 29.08 -1.12 -0.73 -2.16 0 0 2.16 0 0 -9.47 0.83 0.29 50.54 -7.28 4.94 -4.77 0 0 23.03 -0.88 -1.86 -2.87 0 0 -3.95 0.07 -0.39 -8.65 1.01 -1.70 47.01 -0.55 -2.90 -4.54 0 0 62.24 2.05 2.58 -2.50 0 0 -6.76 0 0 -7.69 0.66 -3.90 49.31 -14.26 -15.01 -3.21 0 0 44.25 -1.69 -3.53 -1.92 0 0 -4.41 0 0 8.73 -0 0 92.42 -64.51 113.38 0 -46.66 0 23.60 55.58 -7.74 0 -40.14 0 -25.93 0.71 -4.53 0 -8.88 14.22 0 0 -0 -8.73 0 -0 -91.66 -73.60 -98.98 0 -46.66 0 -19.07 75.31 17.03 0 -40.14 0 10.70 11.77 20.97 0 -8.88 14.22 0 0 0 
-10.97 22.98 84.79 -130.71 -33.75 -90.34 0 7.23 0 1.83 12.78 -4.67 0 16.54 0 5.70 27.35 -7.88 0 34.21 0 39.19 43.05 -19.40 0 6.29 0 -28.41 -19.26 10.86 4.06 26.61 -1.12 -17.88 3.59 -0.20 14.17 0 0 -13.18 -7.39 -93.58 26.12 0 0 0 -9.86 0 27.71 0 0 37.61 5.40 -45.58 2.29 -0.46 1.83 66.78 56.39 -94.92 5.29 0 0 2.77 -3.66 8.61 3.01 0 0 12.48 -0 0 9.37 0.29 2.59 -16.98 -2.70 -5.05 4.34 0 0 -18.14 -0.52 0.74 2.16 0 0 -2.16 0 0 9.47 0.83 0.29 -37.38 -6.73 -2.62 4.77 0 0 -13.96 -0.38 1.40 2.87 0 0 3.95 0.07 0.39 8.65 1.01 -1.70 -45.64 -0.49 2.60 4.54 0 0 -39.24 0.75 -2.24 2.50 0 0 6.76 0 0 7.69 0.66 -3.90 -44.21 -15.11 12.08 3.21 0 0 -35.63 -1.37 2.24 1.92 0 0 4.41 0 0 -4.06 26.61 -1.12 36.39 -0.12 2.89 -14.17 0 0 38.6 -29.98 42.30 -26.12 0 0 0.27 0.73 65.67 -27.71 0 0 -25.56 6.93 16.21 -2.29 -0.46 1.83 -96.42 61.51 129.18 -5.29 0 0 5.05 -0.38 -4.02 -3.01 0 0 -12.48 0 0 -9.37 0.29 2.59 30.12 -2.83 12.42 -4.34 0 0 29.02 -1.13 -0.73 -2.16 0 0 2.16 0 0 -9.47 0.83 0.29 51.29 -7.29 5.15 -4.77 0 0 22.68 -0.86 -1.85 -2.87 0 0 -3.95 0.07 -0.39 -8.65 1.01 -1.70 47.31 -0.56 -2.88 -4.54 0 0 63.23 2.09 2.59 -2.50 0 0 -6.76 0 0 -7.69 0.66 -3.90 49.94 -14.28 -15.00 -3.21 0 0 44.72 -1.73 -3.59 -1.92 0 0 -4.41 0 0 8.73 -0 0 106.01 -71.78 134.61 0 -46.66 0 47.77 69.03 -31.03 0 -40.14 0 -25.62 -2.73 -1.11 0 -8.88 14.22 0 0 -0 -8.73 0 -0 -113.79 -63.96 -118.08 0 -46.66 0 -119.44 83.39 121.02 0 -40.14 0 10.04 1.56 21.81 0 -8.88 14.22 0 0 0 
-13.03 13.62 81.08 -112.69 -47.38 -63.05 0 7.23 0 4.02 11.69 -7.00 0 16.54 0 11.77 25.00 -11.83 0 34.21 0 36.66 41.70 -17.73 0 6.29 0 -20.05 -25.31 1.27 4.06 26.61 -1.12 -11.36 0.23 -3.47 14.17 0 0 -5.28 5.00 -66.36 26.12 0 0 -2.85 -2.26 -47.51 27.71 0 0 23.79 4.76 8.93 2.29 -0.46 1.83 60.18 51.60 -85.93 5.29 0 0 2.11 -3.46 13.25 3.01 0 0 12.48 -0 0 9.37 0.29 2.59 -3.46 -1.83 -2.78 4.34 0 0 -12.80 -0.28 0.70 2.16 0 0 -2.16 0 0 9.47 0.83 0.29 -21.13 -5.87 -0.53 4.77 0 0 -9.78 -0.22 1.14 2.87 0 0 3.95 0.07 0.39 8.65 1.01 -1.70 -33.14 0.10 3.24 4.54 0 0 -26.51 0.37 -1.74 2.50 0 0 6.76 0 0 7.69 0.66 -3.90 -29.44 -14.34 14.51 3.21 0 0 -28.35 -0.84 1.28 1.92 0 0 4.41 0 0 -4.06 26.61 -1.12 27.41 -0.91 3.14 -14.17 0 0 34.70 -30.64 43.51 -26.12 0 0 2.04 -0.81 50.52 -27.71 0 0 1.92 16.65 4.96 -2.29 -0.46 1.83 -92.18 62.34 124.58 -5.29 0 0 5.52 1.02 -5.28 -3.01 0 0 -12.48 0 0 -9.37 0.29 2.59 23.48 -2.64 10.65 -4.34 0 0 24.93 -0.92 -0.75 -2.16 0 0 2.16 0 0 -9.47 0.83 0.29 43.75 -7.01 4.06 -4.77 0 0 18.97 -0.68 -1.65 -2.87 0 0 -3.95 0.07 -0.39 -8.65 1.01 -1.70 41.93 -0.33 -3.18 -4.54 0 0 54.98 1.70 2.47 -2.50 0 0 -6.76 0 0 -7.69 0.66 -3.90 44.03 -14.18 -15.60 -3.21 0 0 40.14 -1.32 -3.01 -1.92 0 0 -4.41 0 0 8.73 -0 0 78.23 -79.92 113.66 0 -46.66 0 55.92 69.13 -50.11 0 -40.14 0 -23.00 3.91 17.77 0 -8.88 14.22 0 0 -0 -8.73 0 -0 -102.12 -58.29 -113.39 0 -46.66 0 -122.95 82.54 126.82 0 -40.14 0 3.66 -5.45 9.84 0 -8.88 14.22 0 0 0 
-14.54 11.83 74.73 -87.56 -54.99 -30.91 0 7.23 0 6.14 10.34 -6.76 0 16.54 0 16.11 22.02 -12.90 0 34.21 0 15.14 42.26 -6.38 0 6.29 0 2.53 -32.91 -3.41 4.06 26.61 -1.12 -8.15 -0.33 -6.24 14.17 0 0 6.27 20.92 -39.24 26.12 0 0 -3.13 1.77 -102.89 27.71 0 0 4.93 13.25 1.01 2.29 -0.46 1.83 56.24 47.22 -80.27 5.29 0 0 0.61 -3.18 16.93 3.01 0 0 12.48 -0 0 9.37 0.29 2.59 7.31 -1.03 -1.50 4.34 0 0 -9.24 -0.12 0.66 2.16 0 0 -2.16 0 0 9.47 0.83 0.29 -8.09 -5.05 1.02 4.77 0 0 -7.39 -0.14 0.99 2.87 0 0 3.95 0.07 0.39 8.65 1.01 -1.70 -23.69 0.71 3.90 4.54 0 0 -16.57 0.17 -1.31 2.50 0 0 6.76 0 0 7.69 0.66 -3.90 -17.87 -13.51 16.75 3.21 0 0 -23.06 -0.53 0.53 1.92 0 0 4.41 0 0 -4.06 26.61 -1.12 16.63 -2.66 2.55 -14.17 0 0 31.54 -30.39 41.36 -26.12 0 0 1.49 -0.85 40.75 -27.71 0 0 19.21 16.22 -0.85 -2.29 -0.46 1.83 -84.12 63.23 115.87 -5.29 0 0 6.79 3.26 -7.36 -3.01 0 0 -12.48 0 0 -9.37 0.29 2.59 12.40 -2.15 7.69 -4.34 0 0 18.20 -0.59 -0.73 -2.16 0 0 2.16 0 0 -9.47 0.83 0.29 31.04 -6.42 2.29 -4.77 0 0 12.97 -0.40 -1.30 -2.87 0 0 -3.95 0.07 -0.39 -8.65 1.01 -1.70 32.94 0.10 -3.64 -4.54 0 0 41.02 1.10 2.13 -2.50 0 0 -6.76 0 0 -7.69 0.66 -3.90 34.05 -13.91 -16.53 -3.21 0 0 32.40 -0.75 -1.98 -1.92 0 0 -4.41 0 0 8.73 -0 0 -17.93 -77.97 19.97 0 -46.66 0 61.57 70.64 -55.24 0 -40.14 0 -12.91 3.85 26.00 0 -8.88 14.22 0 0 -0 -8.73 0 -0 -90.22 -49.56 -107.16 0 -46.66 0 -95.91 86.80 95.61 0 -40.14 0 2.21 8.74 13.12 0 -8.88 14.22 0 0 0 
-15.64 13.81 65.90 -55.54 -54.26 8.00 0 7.23 0 6.12 9.36 -6.31 0 16.54 0 16.10 20.01 -12.50 0 34.21 0 -4.87 39.94 2.95 0 6.29 0 19.77 -38.00 -2.17 4.06 26.61 -1.12 -5.08 -2.67 -6.14 14.17 0 0 0 38.56 -12.69 26.12 0 0 -2.98 1.94 -109.96 27.71 0 0 18.80 38.08 -6.70 2.29 -0.46 1.83 55.04 44.91 -77.76 5.29 0 0 -5.53 -6.02 17.03 3.01 0 0 12.48 -0 0 9.37 0.29 2.59 10.37 -0.76 -8.78 4.34 0 0 -5.43 0.04 0.60 2.16 0 0 -2.16 0 0 9.47 0.83 0.29 1.14 -4.44 2.16 4.77 0 0 -4.23 -0.05 0.78 2.87 0 0 3.95 0.07 0.39 8.65 1.01 -1.70 -11.45 1.05 8.97 4.54 0 0 -7.44 0.04 -0.88 2.50 0 0 6.76 0 0 7.69 0.66 -3.90 -3.68 -12.49 22.49 3.21 0 0 -13.66 -0.14 -0.82 1.92 0 0 4.41 0 0 -4.06 26.61 -1.12 12.87 -3.05 4.17 -14.17 0 0 29.60 -28.45 37.28 -26.12 0 0 1.15 -0.61 37.71 -27.71 0 0 16.40 12.01 5.92 -2.29 -0.46 1.83 -74.17 63.27 105.12 -5.29 0 0 9.03 5.47 -9.53 -3.01 0 0 -12.48 0 0 -9.37 0.29 2.59 0.42 -1.52 4.45 -4.34 0 0 11.06 -0.24 -0.68 -2.16 0 0 2.16 0 0 -9.47 0.83 0.29 17.02 -5.63 0.45 -4.77 0 0 6.77 -0.16 -0.91 -2.87 0 0 -3.95 0.07 -0.39 -8.65 1.01 -1.70 23.15 0.65 -4.05 -4.54 0 0 25.48 0.54 1.59 -2.50 0 0 -6.76 0 0 -7.69 0.66 -3.90 23.02 -13.51 -17.42 -3.21 0 0 23.82 -0.28 -0.75 -1.92 0 0 -4.41 0 0 8.73 -0 0 -39.18 -61.11 4.38 0 -46.66 0 74.77 77.07 -59.80 0 -40.14 0 -7.53 -9.47 18.34 0 -8.88 14.22 0 0 0 -8.73 0 -0 -92.63 -37.14 -113.2 0 -46.66 0 -118.02 83.28 115.42 0 -40.14 0 -6.97 1.35 20.32 0 -8.88 14.22 0 0 0 
-15.99 15.93 56.80 -33.10 -43.67 37.61 0 7.23 0 5.54 9.06 -6.30 0 16.54 0 14.98 19.38 -12.80 0 34.21 0 -2.92 36.76 -2.71 0 6.29 0 19.22 -44.15 -4.53 4.06 26.61 -1.12 -1.44 -5.54 -5.29 14.17 0 0 -23.64 40.70 7.19 26.12 0 0 -1.73 0.78 -85.60 27.71 0 0 27.98 52.06 -6.40 2.29 -0.46 1.83 55.66 44.85 -77.54 5.29 0 0 -15.74 -10.28 12.46 3.01 0 0 12.48 -0 0 9.37 0.29 2.59 6.85 -0.86 -14.16 4.34 0 0 -0.89 0.24 0.52 2.16 0 0 -2.16 0 0 9.47 0.83 0.29 7.33 -4.01 2.88 4.77 0 0 -0.27 0.07 0.51 2.87 0 0 3.95 0.07 0.39 8.65 1.01 -1.70 5.22 2.42 12.80 4.54 0 0 -0.44 0 -0.54 2.50 0 0 6.76 0 0 7.69 0.66 -3.90 12.85 -10.68 25.38 3.21 0 0 -1.62 0 -2.64 1.92 0 0 4.41 0 0 -4.06 26.61 -1.12 12.39 -2.28 4.40 -14.17 0 0 29.61 -24.55 32.64 -26.12 0 0 0.78 -0.26 34.93 -27.71 0 0 12.48 12.79 13.06 -2.29 -0.46 1.83 -65.18 62.22 95.33 -5.29 0 0 12.23 6.86 -11.01 -3.01 0 0 -12.48 0 0 -9.37 0.29 2.59 -8.97 -1.00 1.61 -4.34 0 0 5.69 0.01 -0.61 -2.16 0 0 2.16 0 0 -9.47 0.83 0.29 5.47 -4.88 -1.02 -4.77 0 0 2.46 -0.02 -0.62 -2.87 0 0 -3.95 0.07 -0.39 -8.65 1.01 -1.70 15.33 1.14 -4.31 -4.54 0 0 12.45 0.20 1.04 -2.50 0 0 -6.76 0 0 -7.69 0.66 -3.90 13.89 -13.11 -17.99 -3.21 0 0 16.72 -0.04 0.29 -1.92 0 0 -4.41 0 0 8.73 -0 0 -36.62 -48.61 9.85 0 -46.66 0 86.91 80.35 -85.99 0 -40.14 0 -2.57 -21.83 18.52 0 -8.88 14.22 0 0 -0 -8.73 0 -0 -97.96 -31.42 -119.60 0 -46.66 0 -122.75 72.54 119.42 0 -40.14 0 -1.25 -21.50 20.98 0 -8.88 14.22 0 0 0 
-15.73 16.95 47.92 -23.27 -30.41 54.49 0 7.23 0 5.83 9.17 -6.48 0 16.54 0 14.72 19.52 -13.58 0 34.21 0 8.86 33.32 -13.44 0 6.29 0 6.41 -48.09 -13.41 4.06 26.61 -1.12 -1.12 -5.83 -5.21 14.17 0 0 -28.73 41.93 -1.47 26.12 0 0 -0.35 0.60 -54.04 27.71 0 0 66.65 29.11 -43.19 2.29 -0.46 1.83 57.54 43.01 -74.78 5.29 0 0 -16.78 -10.64 11.86 3.01 0 0 12.48 -0 0 9.37 0.29 2.59 6.39 -0.89 -14.18 4.34 0 0 -0.48 0.26 0.52 2.16 0 0 -2.16 0 0 9.47 0.83 0.29 7.82 -3.97 2.68 4.77 0 0 0.03 0.08 0.49 2.87 0 0 3.95 0.07 0.39 8.65 1.01 -1.70 6.94 2.50 12.90 4.54 0 0 -0.01 0 -0.52 2.50 0 0 6.76 0 0 7.69 0.66 -3.90 14.50 -10.55 25.35 3.21 0 0 -0.65 0 -2.77 1.92 0 0 4.41 0 0 -4.06 26.61 -1.12 16.29 -0.52 0.27 -14.17 0 0 32.97 -18.51 28.64 -26.12 0 0 0.46 0.07 30.44 -27.71 0 0 11.43 11.74 11.79 -2.29 -0.46 1.83 -59.59 60.65 89.03 -5.29 0 0 16.24 6.76 -10.85 -3.01 0 0 -12.48 0 0 -9.37 0.29 2.59 -12.20 -0.87 -0.23 -4.34 0 0 4.36 0.07 -0.59 -2.16 0 0 2.16 0 0 -9.47 0.83 0.29 0.22 -4.53 -1.89 -4.77 0 0 2.18 -0.01 -0.60 -2.87 0 0 -3.95 0.07 -0.39 -8.65 1.01 -1.70 12.31 1.34 -4.39 -4.54 0 0 6.13 0.08 0.75 -2.50 0 0 -6.76 0 0 -7.69 0.66 -3.90 9.65 -12.88 -18.07 -3.21 0 0 13.44 0.02 0.79 -1.92 0 0 -4.41 0 0 8.73 -0 0 -39.68 -46.82 20.37 0 -46.66 0 138.66 74.50 -138.18 0 -40.14 0 4.10 -23.35 6.23 0 -8.88 14.22 0 0 0 -8.73 0 -0 -103.84 -29.08 -122.57 0 -46.66 0 -122.48 73.28 121.30 0 -40.14 0 -3.24 -13.55 20.25 0 -8.88 14.22 0 0 0 
